<svg xmlns="http://www.w3.org/2000/svg" style="display: none;">
  <symbol id="icon-save" viewBox="0 0 21 21">
    <path d="M0 0h1.615v1.615H0z"/>
    <path d="M0 1.615h1.615V3.23H0z"/>
    <path d="M0 3.23h1.615v1.615H0z"/>
    <path d="M0 4.846h1.615v1.615H0z"/>
    <path d="M0 6.462h1.615v1.615H0z"/>
    <path d="M0 8.077h1.615v1.615H0z"/>
    <path d="M0 9.692h1.615v1.615H0z"/>
    <path d="M0 11.308h1.615v1.615H0z"/>
    <path d="M0 12.923h1.615v1.615H0z"/>
    <path d="M0 14.538h1.615v1.615H0z"/>
    <path d="M0 16.154h1.615v1.615H0z"/>
    <path d="M0 17.77h1.615v1.615H0z"/>
    <path d="M0 19.385h1.615V21H0z"/>
    <path d="M17.77 0v1.615h-1.616V0z"/>
    <path d="M16.154 0v1.615h-1.615V0z"/>
    <path d="M14.539 0v1.615h-1.615V0z"/>
    <path d="M12.923 0v1.615h-1.615V0z"/>
    <path d="M11.308 0v1.615H9.693V0z"/>
    <path d="M9.692 0v1.615H8.077V0z"/>
    <path d="M8.077 0v1.615H6.462V0z"/>
    <path d="M6.462 0v1.615H4.847V0z"/>
    <path d="M4.846 0v1.615H3.231V0z"/>
    <path d="M3.23 0v1.615H1.617V0z"/>
    <path d="M19.385 1.616V3.23H17.77V1.616z"/>
    <path d="M4.847 3.23v1.615H3.232V3.23z"/>
    <path d="M4.846 1.615V3.23H3.231V1.615z"/>
    <path d="M4.846 4.846V6.46H3.23V4.846z"/>
    <path d="M16.154 3.23v1.616H14.54V3.23z"/>
    <path d="M16.154 1.615V3.23h-1.615V1.615z"/>
    <path d="M16.153 4.846V6.46H14.54V4.846z"/>
    <path d="M12.924 3.23v1.615h-1.615V3.23z"/>
    <path d="M12.923 1.615V3.23h-1.615V1.615z"/>
    <path d="M12.923 4.846V6.46h-1.615V4.846z"/>
    <path d="M16.154 6.462v1.615h-1.615V6.462z"/>
    <path d="M14.538 6.462v1.615h-1.615V6.462z"/>
    <path d="M12.923 6.462v1.615h-1.615V6.462z"/>
    <path d="M11.308 6.462v1.615H9.693V6.462z"/>
    <path d="M9.692 6.462v1.615H8.077V6.462z"/>
    <path d="M8.077 6.462v1.615H6.462V6.462z"/>
    <path d="M6.461 6.462v1.615H4.846V6.462z"/>
    <path d="M4.846 6.462v1.615H3.231V6.462z"/>
    <path d="M17.769 11.307v1.615h-1.615v-1.615z"/>
    <path d="M16.153 11.308v1.615h-1.615v-1.615z"/>
    <path d="M14.538 11.308v1.615h-1.615v-1.615z"/>
    <path d="M12.923 11.308v1.614h-1.615v-1.615z"/>
    <path d="M11.307 11.308v1.615H9.692v-1.615z"/>
    <path d="M9.692 11.307v1.615H8.077v-1.615z"/>
    <path d="M8.076 11.308v1.615H6.461v-1.615z"/>
    <path d="M6.461 11.308v1.615H4.846v-1.615z"/>
    <path d="M4.846 11.307v1.615H3.23v-1.615z"/>
    <path d="M17.77 12.923v1.615h-1.616v-1.615z"/>
    <path d="M4.846 12.923v1.615H3.231v-1.615z"/>
    <path d="M17.77 14.538v1.615h-1.616v-1.615z"/>
    <path d="M4.846 14.538v1.615H3.231v-1.615z"/>
    <path d="M17.77 16.154v1.615h-1.615v-1.615z"/>
    <path d="M4.846 16.154v1.615H3.231v-1.615z"/>
    <path d="M4.846 17.77v1.614H3.23V17.77z"/>
    <path d="M17.769 17.77v1.614h-1.615V17.77z"/>
    <path d="M19.384 19.385V21H17.77v-1.615z"/>
    <path d="M17.77 19.384V21h-1.616v-1.615z"/>
    <path d="M16.154 19.385V21h-1.615v-1.615z"/>
    <path d="M14.538 19.385V21h-1.615v-1.615z"/>
    <path d="M12.923 19.385V21h-1.615v-1.615z"/>
    <path d="M11.307 19.385V21H9.692v-1.615z"/>
    <path d="M9.692 19.385V21H8.077v-1.615z"/>
    <path d="M8.077 19.385V21H6.462v-1.615z"/>
    <path d="M6.461 19.385V21H4.846v-1.615z"/>
    <path d="M4.846 19.385V21H3.231v-1.615z"/>
    <path d="M3.23 19.385V21H1.617v-1.615z"/>
    <path d="M21 21h-1.615v-1.615H21z"/>
    <path d="M21 19.385h-1.615V17.77H21z"/>
    <path d="M21 17.769h-1.615v-1.615H21z"/>
    <path d="M21 16.155h-1.615V14.54H21z"/>
    <path d="M21 14.538h-1.615v-1.615H21z"/>
    <path d="M21 12.923h-1.615v-1.615H21z"/>
    <path d="M21 11.307h-1.615V9.692H21z"/>
    <path d="M21 9.693h-1.615V8.078H21z"/>
    <path d="M21 8.077h-1.615V6.462H21z"/>
    <path d="M21 6.462h-1.615V4.847H21z"/>
    <path d="M21 4.845h-1.615V3.23H21z"/>
  </symbol>
</svg>